<!DOCTYPE svg PUBLIC "-//W3C//DTD SVG 1.1//EN" "http://www.w3.org/Graphics/SVG/1.1/DTD/svg11.dtd">
<svg xmlns="http://www.w3.org/2000/svg" xmlns:xlink="http://www.w3.org/1999/xlink" version="1.1" id="Layer_1" width="512px" height="512px" viewport="0 0 512 512">
<style>
/* <![CDATA[*/

.fillSuitColor {
	fill: #5D4D2A;
}
.fillSuitHighlight {
	fill: #946E1C;
}
.fillTieColor {
	fill: #C60500;
}
.fillShirtColor {
	fill: #F3FEFF;
}
.fillMirrorFrame {
	fill: #EFB754;
}

/*]]>*/
</style>
<g id="Mirror">
	<path id="frame" class="fillMirrorFrame" stroke="#000000" stroke-width="6" stroke-miterlimit="10" d="M469.97,257.236 c0,121.186-99.761,212.093-212.095,212.093c-117.136,0-212.094-94.958-212.094-212.093c0-117.136,94.958-212.094,212.094-212.094 C375.012,45.142,469.97,140.1,469.97,257.236z"/>
	<path id="glass" fill="#AACCCE" stroke="#000000" stroke-width="4" stroke-miterlimit="10" d="M447.758,257.236 c0,108.313-89.162,189.561-189.56,189.561c-104.692,0-189.562-84.869-189.562-189.561c0-104.692,84.869-189.562,189.562-189.562 C362.889,67.676,447.758,152.544,447.758,257.236z"/>
</g>
<g id="Skin">
	<path id="body" fill="#FFCBA2" stroke="#000000" stroke-width="4" stroke-miterlimit="10" d="M242.709,247.105 c0,0,24.977-8.782,46.657,0c21.68,8.783,37.255,33.79,41.586,38.122c4.333,4.332,21.66,3.465,39.854,11.264 c18.192,7.797,17.326,2.599,24.259,12.128c6.932,9.528,3.467,31.192,5.197,60.649c1.733,29.454-7.798,101.364-8.665,107.43 c-0.865,6.065-64.114,9.53-77.109,9.53s-82.307,11.264-90.104,13.861c-7.799,2.598-28.592,6.065-37.255,6.065 s-28.591-9.529-32.056-14.729c-3.467-5.199-9.532-23.394-9.532-23.394s20.078,4.03,27.876,4.03c7.797,0,30.176,0.304,38.837-6.63 c8.663-6.933-12.13-23.394-12.13-23.394s-12.995-47.648-12.995-49.383c0-1.735-25.124,44.186-32.056,49.383 c-6.933,5.199-25.992,13.864-31.191,12.997c-5.198-0.868-19.929-14.73-19.061-25.128c0.866-10.396,13.861-70.178,14.728-75.377 c0.867-5.197,10.396-60.215,14.731-61.729c4.331-1.516,38.986-21.431,51.114-17.971c12.13,3.459,27.725-9.537,31.19-13.002 C220.052,258.366,242.709,247.105,242.709,247.105z"/>
	<path id="thumb" fill="none" stroke="#000000" stroke-width="5" stroke-miterlimit="10" d="M196.228,488.834c0,0-27.361,3.48-26.004-15.595"/>
	<path id="face_fill" fill="#FFCBA2" d="M155.073,100.688c0,0,10.396-48.518,51.983-58.916 c41.587-10.396,69.803-10.92,89.239,7.798c23.393,22.526,23.393,49.385,28.591,72.778c5.198,23.392,0,32.057,0,32.057 s6.064-6.933,12.995-6.066c6.931,0.867,9.53,18.195,9.53,25.125c0,6.932-6.934,21.661-10.396,27.726 c-3.465,6.064-6.931,8.663-6.931,8.663s0.864,18.194-0.866,23.393c-1.732,5.199-41.586,49.383-47.651,53.716 c-6.063,4.333-19.063,8.664-30.324,3.466c-11.262-5.199-51.69-27.789-56.021-37.318c-4.33-9.531-8.959-21.164-8.959-21.164 s-20.36-13.862-23.825-21.66c-3.466-7.797-10.396-39.855,0-37.255c10.396,2.599,5.197,2.599,5.197,2.599 S155.073,118.882,155.073,100.688z"/>
	<g id="shadows">
		<path id="left_cheek" fill="#FFF1EB" d="M281.566,286.963c0,0,35.212-47.002,32.983-70.935c-2.229-23.934-7.694-79.384-16.44-106.676 c-8.748-27.292-5.719-18.626-5.719-18.626l15.92,10.83c0,0,19.568,79.708,19.589,91.404c0.019,11.696,3.754,36.48,1.318,40.287 C326.784,237.054,289.799,278.73,281.566,286.963z"/>
		<path id="right_cheek" fill="#FFF1EB" d="M255.575,291.96c-1.644-0.481-42.887-28.823-48.518-46.15c-5.631-17.328-11.699-35.332-11.699-35.332 S171.159,99.823,175.247,90.726c4.086-9.098-8.911,16.894-5.444,35.955c3.465,19.06,14.293,86.206,14.293,86.206 s0.052,14.099,3.704,22.863c3.652,8.764,8.119,21.958,27.316,33.852C234.314,281.492,255.575,291.96,255.575,291.96z"/>
		<polygon id="nose" fill="#FFF1EB" points="237.598,212.032 245.609,182.432 255.575,217.652 "/>
	</g>
	<path id="face_edge" fill="none" stroke="#000000" stroke-width="4" stroke-miterlimit="10" d="M154.553,100.688 c0,0,10.396-48.517,51.984-58.914c41.587-10.397,69.802-10.921,89.236,7.797c23.395,22.525,23.395,49.385,28.593,72.778 c5.198,23.392,0,32.056,0,32.056s6.064-6.932,12.996-6.065c6.931,0.866,9.529,18.195,9.529,25.125 c0,6.932-6.933,21.661-10.396,27.726c-3.467,6.064-6.934,8.663-6.934,8.663s0.866,18.194-0.865,23.393 c-1.734,5.199-41.588,49.384-47.652,53.717c-6.064,4.332-19.063,8.663-30.323,3.466c-11.262-5.199-51.689-27.789-56.021-37.319 c-4.331-9.53-8.958-21.164-8.958-21.164s-20.361-13.862-23.827-21.66c-3.465-7.797-10.396-39.854,0-37.254 c10.396,2.599,5.199,2.599,5.199,2.599S154.553,118.882,154.553,100.688z"/>
</g>
<g id="Jacket">
	<path id="shirt" class="fillShirtColor" stroke="#000000" stroke-width="5" stroke-miterlimit="10" d="M205.088,269.6c0,0,4.923-3.365,6.573-0.787 c8.279,12.932,34.018,52.047,44.131,54.756h5.522c0,0,28.05-9.748,45.84-59.688l14.529,30.448l-58.744,124.111h-27.942 l-40.287-128.66L205.088,269.6z"/>
	<path id="jacket_breast" class="fillSuitColor" d="M211.161,264.999c0,0,18.278,59.192,23.991,72.869 c7.557,18.091,22.997,39.599,22.997,39.599s0,0,6.83-9.185c5.738-7.716,24.733-32.983,28.021-41.897 c8.667-23.494,12.609-62.685,12.609-62.685l9.771-9.713c0,0,10.856,21.589,45.485,33.845 c34.632,12.256,41.537,21.968,41.537,21.968s1.306,172.911-5.199,176.185c-6.506,3.273-152.168,16.572-152.168,16.572 l-21.328,3.813l-3.826-44.09l-1.37-4.724l-23.802-13.646l-9.988-33.393l-32.092,39.615c0,0-32.045,2.495-40.5-1.751 c-12.193-6.124-20.997-6.067-17.296-27.867c3.702-21.799,17.732-77.723,17.732-77.723s23.686,41.479,40.825,25.489 c9.479-8.846,6.75-18.395,6.75-18.395l5.963-25.541l-0.635-32.056L211.161,264.999z"/>
	<g id="jacket_breast_highlights" class="fillSuitHighlight">
		<path d="M112.566,344.83c0,0-26.415,85.31-14.98,94.729c11.434,9.424,12.903,10.149,12.903,10.149 s-9.134-11.341-8.701-20.438c0.434-9.096,18.322-85.849,18.322-85.849L112.566,344.83z"/>
		<path d="M305.609,265.736l29.242,27.068l-14.62,93.4l8.986-0.951l14.256-90.066l48.125,22.967V474.97 c0,0-2.222,13.478-5.941,13.917c-3.724,0.438,14.193-1.304,14.816-7.851c0.625-6.546,2.122-154.651,2.122-154.651l-0.192-14.548 l-54.583-27.292l-11.523-7.447l-20.915-23.112L305.609,265.736z"/>
		<polygon points="302.552,398.419 240.414,445.947 252.63,447.134 308.982,409.991   "/>
		<path d="M256.009,447.134l84.474-15.048c0,0,3.899-0.002,9.53,5.197c5.632,5.198,5.632,5.198,5.632,5.198 l-80.945,9.688C274.698,452.171,263.966,454.16,256.009,447.134z"/>
		<polygon points="194.71,385.254 187.127,317.287 196.524,317.287 203.591,385.254   "/>
		<polygon points="215.286,404.362 236.39,423.922 240.179,416.128 218.512,395.877   "/>
	</g>
	<g id="Jacket_Details_2_">
		<polyline fill="none" stroke="#000000" stroke-width="4" stroke-miterlimit="10" points="345.339,283.402 329.219,385.254  298.027,388.548   "/>
		<path fill="none" stroke="#000000" stroke-width="4" stroke-miterlimit="10" d="M276.343,353.425 c2.841,2.634,32.641,56.566,32.641,56.566l-55.573,35.956"/>
		<polyline fill="none" stroke="#000000" stroke-width="4" stroke-miterlimit="10" points="258.197,326.385 240.414,349.771  214.585,404.143 236.054,424.628   "/>
		<polyline fill="none" stroke="#000000" stroke-width="4" stroke-miterlimit="10" points="223.396,385.254 194.71,385.254  186.645,312.956   "/>
		<line fill="none" stroke="#000000" stroke-width="3" stroke-miterlimit="10" x1="258.197" y1="326.385" x2="276.343" y2="353.425"/>
		<path id="Jacket_-_UnderL_2_" fill="none" d="M197.717,456.092c0,0-11.696-38.338-12.995-43.536 c-1.299-5.197-28.591,42.888-38.338,43.536c-9.747,0.65-37.69-14.296-29.892-39.638c3.074-9.985,40.896-33.136,43.063-63.122 c0.391-5.396,19.371-5.639,21.076-10.928c8.967-27.818-25.151-47.463-25.151-47.463l56.478-25.342c0,0,21.74,87.107,46.19,107.867 "/>
		<path id="Jacket_-_Sleeve_L_2_" fill="none" stroke="#000000" stroke-width="4" stroke-miterlimit="10" d="M112.566,344.83 c0.702-0.702,5.884-2.784,7.544,0c0.361,0.605-1.574,7.891-1.164,8.595c6.036,10.317,15.843,26.873,35.604,16.991 c0,0,0.679-1.189,3.279-8.986c6.173,0,9.319,2.414,7.371,12.078c-1.949,9.662-14.026,75.146-14.026,75.146 s-24.053,4.86-34.255,3.153c-10.2-1.709-23.197-12.755-22.547-20.555C95.023,423.456,92.423,418.907,112.566,344.83z"/>
		<path id="Jacket_-_Under_R_2_" fill="none" stroke="#000000" stroke-width="4" stroke-miterlimit="10" d="M305.609,265.736 c0,0-3.274,53.25-29.268,87.688c-25.991,34.438-57.831,109.815-57.831,109.815l0,0l2.598-1.084l2.6,44.212l21.328-3.813 l130.725-12.676c0,0,18.846-1.298,21.443-3.896c2.601-2.601,3.898-1.949,5.198-32.49c1.3-30.542,1.3-139.058,0-141.656 s-49.387-26.642-54.583-27.292c-5.198-0.65-28.999-25.992-28.999-27.906c0-1.914-3.439-2.652-3.439-2.652L305.609,265.736z"/>
		<polyline fill="none" stroke="#000000" stroke-width="4" stroke-miterlimit="10" points="251.242,447.134 340.481,432.086  345.339,363.208   "/>
		<polyline fill="none" stroke="#000000" stroke-width="6" stroke-miterlimit="10" points="150.31,452.171 184.722,412.556  196.524,452.171   "/>
		<path fill="none" stroke="#000000" stroke-width="4" stroke-miterlimit="10" d="M209.054,269.6c0,0,26.561,73.813,31.125,78.946"/>
	</g>
	<polygon id="tie" class="fillTieColor" stroke="#000000" stroke-width="4" stroke-miterlimit="10" points="258.197,326.385  240.414,349.771 258.148,377.467 275.337,351.926  "/>
	<line fill="none" stroke="#000000" stroke-width="3" stroke-miterlimit="10" x1="161.42" y1="346.443" x2="157.829" y2="361.43"/>
</g>
<g id="Accessories">
	<g id="hair">
		<path id="hair_fill" fill="#946E1C" d="M184.096,212.032c-1.949-0.217-40.738-85.352-40.738-85.352l-7.147-1.95l2.599-3.249 l-8.448-1.95c0,0-3.249-15.595,22.094-58.481c25.342-42.887,49.385-44.187,110.037-48.086 c60.651-3.898,92.699,68.879,92.699,68.879s-4.55,9.097-10.396,23.393c-5.848,14.295-16.895,93.571-16.895,87.723 s-15.596-87.723-18.845-96.82c-3.248-9.097-37.039-29.24-32.492-25.341c4.552,3.898,12.998,30.54,12.998,30.54 s-18.845-9.746-25.342-12.995c-6.496-3.25-29.241-17.544-29.241-17.544s-40.288,4.548-51.334,13.646 c-11.047,9.097-11.697,4.548-13.646,24.691c-1.949,20.143,6.95,65.629,6.95,65.629S184.162,210.353,184.096,212.032z"/>
		<path fill="#5D4D2A" d="M314.551,71.333l25.064,20.908l13.078-5.161c0,0-9.54,22.411-11.032,29.371 c-1.493,6.959-13.762,76.508-13.762,76.508L306.256,91.958l15.429,9.597L314.551,71.333z"/>
		<polygon fill="#5D4D2A" points="168.901,116.933 184.096,212.032 143.357,126.681 149.225,122.781 146.625,116.933  168.901,101.555   "/>
		<path fill="#EFB754" d="M353.353,85.67l1.839-3.826c0,0-38.102-77.758-111.605-71.979c-74.938,5.892-78.588,29.451-100.228,67.718 s-11.693,42.25-10.778,42.46c0,0,1.269-11.99,6.898-22.388c5.633-10.397,21.853-50.737,44.618-63.075 c28.296-15.334,65.296-23.057,96.818-14.034C309.147,28.627,327.667,43.361,353.353,85.67"/>
		<path id="hair_line" fill="none" stroke="#000000" stroke-width="4" stroke-miterlimit="10" d="M184.096,212.032 c-1.949-0.217-40.738-85.352-40.738-85.352l-7.147-1.95l2.599-3.249l-8.448-1.95c0,0-3.249-15.595,22.094-58.481 c18.175-30.757,33.587-39.872,62.287-47.699c22.856-6.233,56.368-3.083,72.657,2.411c48.869,16.477,69.546,65.866,69.546,65.866 s-6.304,9.313-12.15,23.609c-5.848,14.295-16.895,93.571-16.895,87.723s-15.596-87.723-18.845-96.82 c-3.248-9.097-37.039-29.24-32.492-25.341c4.552,3.898,12.998,30.54,12.998,30.54s-18.845-9.746-25.342-12.995 C257.725,85.094,234.98,70.8,234.98,70.8s-40.288,4.548-51.334,13.646c-11.047,9.097-11.697,4.548-13.646,24.691 s6.95,65.629,6.95,65.629S184.162,210.353,184.096,212.032z"/>
		<path id="hair_part" fill="none" stroke="#000000" stroke-width="4" stroke-miterlimit="10" d="M292.391,80.344l27.73,21.211 c0,0-3.624-30.325-9.177-39.855"/>
	</g>
	<g id="expression">
		<path fill="none" stroke="#000000" stroke-width="8" stroke-miterlimit="10" d="M255.575,135.214c0,0,28.155-10.267,50.681,6.195"/>
		<path fill="none" stroke="#000000" stroke-width="8" stroke-miterlimit="10" d="M233.05,151.806c0,0-23.012-12.563-46.405,2.166"/>
		<path fill="none" stroke="#000000" stroke-width="4" stroke-miterlimit="10" d="M242.709,236.713c0,0,8.533,2.057,15.488,0 c10.592-3.133,27.27-17.329,27.701-19.062"/>
		<path fill="none" stroke="#000000" stroke-width="2" stroke-miterlimit="10" d="M283.083,216.028c0,0,4.767,0.689,5.198,5.951"/>
		<polygon fill="none" stroke="#000000" stroke-width="5" stroke-miterlimit="10" points="269.761,203.031 255.575,220.576  237.598,212.032 255.575,217.652   "/>
	</g>
	<g id="glasses">
		<path fill="#F3FEFF" d="M260.12,172.952c-1.707-7.934,2.585-13.757,4.972-16.618c5.708-6.841,18.229-11.459,31.893-9.899 c8.846,1.01,14.243,6.924,16.671,12.735c2.807,6.714,2.331,21.582-9.755,28.591c-10.83,6.281-18.629,5.631-26.644,3.465 C268.923,188.975,261.398,178.897,260.12,172.952z"/>
		<path fill="#F3FEFF" d="M235.82,177.333c-2.082-7.845-8.549-11.085-11.975-12.551c-8.191-3.502-21.443-1.934-32.911,5.66 c-7.422,4.915-9.546,12.636-9.07,18.914c0.549,7.258,7.721,20.289,21.671,21.047c12.502,0.68,19.156-3.44,25.312-9.009 C235.251,195.605,237.379,183.21,235.82,177.333z"/>
		<path fill="#AACCCE" d="M235.039,190.406c0,0,5.316-31.321-25.718-27.045c-19.159,2.64-27.374,15.473-27.414,20.756 c-0.107,15.065,8.526,20.989,8.526,20.989s-9.537-13.694,0.702-25.277c6.822-7.718,20.993-13.542,33.48-7.718 C235.82,177.333,235.039,190.406,235.039,190.406z"/>
		<path fill="#AACCCE" d="M313.654,166.898c0,0,0-30.169-35.383-17.245c-15.861,5.792-18.547,18.032-18.151,23.298 c0.394,5.27,7.921,12.612,7.921,12.612s-7.282-14.025-0.771-21.871c8.067-9.722,15.506-13.367,29.135-11.346 C307.358,153.972,313.654,166.898,313.654,166.898z"/>
		<path fill="none" stroke="#000000" stroke-width="5" stroke-miterlimit="10" d="M260.12,172.952 c-1.707-7.934,2.585-13.757,4.972-16.618c5.708-6.841,18.229-11.459,31.893-9.899c8.846,1.01,14.243,6.924,16.671,12.735 c2.807,6.714,2.331,21.582-9.755,28.591c-10.83,6.281-18.629,5.631-26.644,3.465C268.923,188.975,261.398,178.897,260.12,172.952z "/>
		<path fill="none" stroke="#000000" stroke-width="5" stroke-miterlimit="10" d="M235.82,177.333 c-2.082-7.845-8.549-11.085-11.975-12.551c-8.191-3.502-21.443-1.934-32.911,5.66c-7.422,4.915-9.546,12.636-9.07,18.914 c0.549,7.258,7.721,20.289,21.671,21.047c12.502,0.68,19.156-3.44,25.312-9.009C235.251,195.605,237.379,183.21,235.82,177.333z"/>
		<path fill="none" stroke="#000000" stroke-width="5" stroke-miterlimit="10" d="M236.188,176.756c0,0,2.813-4.647,10.528-6.865 c5.838-1.678,13.126,0,13.126,0"/>
		<path fill="none" stroke="#000000" stroke-width="5" stroke-miterlimit="10" d="M314.551,162.108c0,0,16.639-9.219,22.813-13.768"/>
		<path fill="none" stroke="#000000" stroke-width="5" stroke-miterlimit="10" d="M180.545,192.753c0,0-22.182-25.786-18.629-19.72"/>
		<circle stroke="#000000" stroke-width="2" stroke-miterlimit="10" cx="287.4" cy="163.693" r="5.738"/>
		<circle stroke="#000000" stroke-width="2" stroke-miterlimit="10" cx="214.792" cy="179.828" r="5.738"/>
	</g>
	<g id="tea_cup">
		<g id="cup">
			<path id="cup_2_" fill="#F3FEFF" d="M108.305,271.43c0,0,10.685-10.041,35.528-13.131c25.485-2.573,46.47-0.515,61.015,6.566 c15.317,9.525,16.99,10.426,17.765,18.922c0.771,8.497-6.952,59.47-29.351,68.736c-22.398,9.27-58.891,6.761-68.159-6.758 c-3.323-4.845-18.343-30.313-21.149-62.365C103.942,275.098,106.565,273.456,108.305,271.43z"/>
			<path fill="#AACCCE" d="M209.964,268.057c0,0-10.582,67.139-24.601,72.812c-14.018,5.673-57.308,9.716-60.261,4.899 c-2.95-4.817,10.006,19.493,61.812,8.969c0,0,15.32-3.662,21.6-17.527c6.279-13.863,14.883-48.77,14.099-53.42 C221.83,279.136,209.964,268.057,209.964,268.057z"/>
			<path id="cup_1_" fill="none" stroke="#000000" stroke-width="6" stroke-miterlimit="10" d="M108.305,271.43 c0,0,10.685-10.041,35.528-13.131c25.485-2.573,46.47-0.515,61.015,6.566c15.317,9.525,16.99,10.426,17.765,18.922 c0.771,8.497-6.952,59.47-29.351,68.736c-22.398,9.27-58.891,6.761-68.159-6.758c-3.323-4.845-18.343-30.313-21.149-62.365 C103.942,275.098,106.565,273.456,108.305,271.43z"/>
			
		</g>
		<g id="saucer">
			<polygon id="saucer_2_" fill="#F3FEFF" points="107.853,445.947 253.409,445.947 203.591,473.239 154.637,473.239   "/>
			<polygon fill="#AACCCE" points="225.593,447.134 196.524,464.142 141.208,464.142 154.637,473.239 203.591,473.239  248.621,445.947   "/>
			<polygon id="saucer_1_" fill="none" stroke="#000000" stroke-width="6" stroke-miterlimit="10" points="107.853,445.947  253.409,445.947 203.591,473.239 154.637,473.239   "/>
		</g>
	</g>
	<g id="logo" transform="translate(125 275)">

		<!-- TODO This is where remote logos go. -->
	</g>
</g>
</svg>